<svg width="199" height="85" viewBox="0 0 199 85" fill="none" xmlns="http://www.w3.org/2000/svg">
<path d="M18 15.5V43.5" stroke="#292A2E" stroke-width="4" stroke-linecap="round"/>
<path d="M10 15.5V43.5" stroke="#292A2E" stroke-width="4" stroke-linecap="round"/>
<path d="M49 16.5V26.5" stroke="#292A2E" stroke-width="4" stroke-linecap="round"/>
<path d="M42 16.5V26.5" stroke="#292A2E" stroke-width="4" stroke-linecap="round" stroke-linejoin="round"/>
<path d="M49 33.5V54C49 62.5604 42.0604 69.5 33.5 69.5V69.5C24.9396 69.5 18 62.5604 18 54V51.5" stroke="#292A2E" stroke-width="4" stroke-linecap="round" stroke-linejoin="round"/>
<path d="M41 33.5V54C41 62.5604 34.0604 69.5 25.5 69.5V69.5C16.9396 69.5 10 62.5604 10 54V51.5" stroke="#292A2E" stroke-width="4" stroke-linecap="round" stroke-linejoin="round"/>
<g clip-path="url(#clip0_35_14)">
<g clip-path="url(#clip1_35_14)">
<path d="M75.6797 14.9961L75.6602 21.998C75.6602 22.6491 75.5755 23.2741 75.4062 23.873C75.2435 24.4655 75.0091 25.0221 74.7031 25.543C74.4036 26.0573 74.0391 26.5293 73.6094 26.959C73.1862 27.3822 72.7142 27.7467 72.1934 28.0527C71.679 28.3522 71.1257 28.5866 70.5332 28.7559C69.9408 28.9186 69.3223 29 68.6777 29H67.2031C66.5586 29 65.9368 28.9186 65.3379 28.7559C64.7454 28.5866 64.1888 28.349 63.668 28.043C63.1536 27.737 62.6849 27.3724 62.2617 26.9492C61.8385 26.5195 61.474 26.0475 61.168 25.5332C60.8685 25.0124 60.6341 24.4557 60.4648 23.8633C60.3021 23.2643 60.2207 22.6426 60.2207 21.998V14.9961H62.2227V21.998C62.2227 22.6882 62.3529 23.3392 62.6133 23.9512C62.8737 24.5566 63.2285 25.0872 63.6777 25.543C64.1335 25.9922 64.6641 26.347 65.2695 26.6074C65.875 26.8678 66.5195 26.998 67.2031 26.998H68.6777C69.3678 26.998 70.0156 26.8678 70.6211 26.6074C71.2266 26.347 71.7539 25.9922 72.2031 25.543C72.6523 25.0872 73.0072 24.5566 73.2676 23.9512C73.528 23.3392 73.6582 22.6882 73.6582 21.998V14.9961H75.6602H75.6797ZM95.0547 24.9961C95.0547 25.556 94.9473 26.0801 94.7324 26.5684C94.5241 27.0501 94.2376 27.4733 93.873 27.8379C93.515 28.196 93.0918 28.4792 92.6035 28.6875C92.1152 28.8958 91.5977 29 91.0508 29H81.5684V26.998H91.0508C91.3242 26.998 91.5814 26.946 91.8223 26.8418C92.0697 26.7376 92.2845 26.5944 92.4668 26.4121C92.6491 26.2298 92.7923 26.0182 92.8965 25.7773C93.0007 25.5299 93.0527 25.2695 93.0527 24.9961C93.0527 24.7227 93.0007 24.4655 92.8965 24.2246C92.7923 23.9837 92.6491 23.7721 92.4668 23.5898C92.2845 23.4076 92.0697 23.2643 91.8223 23.1602C91.5814 23.056 91.3242 23.0039 91.0508 23.0039H81.5684V21.002H89.0488C89.3223 21.002 89.5794 20.9499 89.8203 20.8457C90.0677 20.7415 90.2826 20.5983 90.4648 20.416C90.6471 20.2337 90.7904 20.0221 90.8945 19.7812C90.9987 19.5339 91.0508 19.2734 91.0508 19C91.0508 18.7266 90.9987 18.4694 90.8945 18.2285C90.7904 17.9811 90.6471 17.7663 90.4648 17.584C90.2826 17.4017 90.0677 17.2585 89.8203 17.1543C89.5794 17.0501 89.3223 16.998 89.0488 16.998H80.5723V29H78.5703V14.9961H89.0488C89.5957 14.9961 90.1133 15.1035 90.6016 15.3184C91.0898 15.5267 91.513 15.8132 91.8711 16.1777C92.2357 16.5358 92.5221 16.959 92.7305 17.4473C92.9453 17.9355 93.0527 18.4531 93.0527 19C93.0527 19.4232 92.9909 19.8236 92.8672 20.2012C92.7435 20.5723 92.5775 20.9173 92.3691 21.2363C92.7598 21.373 93.1178 21.5651 93.4434 21.8125C93.7754 22.0599 94.0586 22.3464 94.293 22.6719C94.5339 22.9974 94.7194 23.3587 94.8496 23.7559C94.9863 24.1465 95.0547 24.5599 95.0547 24.9961ZM114.117 21.998C114.117 22.9681 113.964 23.8796 113.658 24.7324C113.352 25.5853 112.916 26.3275 112.35 26.959C111.79 27.5905 111.116 28.0885 110.328 28.4531C109.54 28.8177 108.665 29 107.701 29H103.043C102.073 29 101.191 28.8177 100.396 28.4531C99.6022 28.0885 98.9219 27.5905 98.3555 26.959C97.7956 26.3275 97.3626 25.5853 97.0566 24.7324C96.7507 23.8796 96.5977 22.9681 96.5977 21.998C96.5977 21.0345 96.7507 20.1296 97.0566 19.2832C97.3626 18.4303 97.7956 17.6882 98.3555 17.0566C98.9219 16.4186 99.6022 15.9173 100.396 15.5527C101.191 15.1816 102.073 14.9961 103.043 14.9961H107.701C108.665 14.9961 109.54 15.1816 110.328 15.5527C111.116 15.9173 111.79 16.4186 112.35 17.0566C112.916 17.6882 113.352 18.4303 113.658 19.2832C113.964 20.1296 114.117 21.0345 114.117 21.998ZM112.115 21.998C112.115 21.3079 112.014 20.6602 111.812 20.0547C111.611 19.4492 111.318 18.9219 110.934 18.4727C110.556 18.0169 110.094 17.6589 109.547 17.3984C109.007 17.1315 108.391 16.998 107.701 16.998H103.043C102.353 16.998 101.731 17.1315 101.178 17.3984C100.631 17.6589 100.165 18.0169 99.7812 18.4727C99.4036 18.9219 99.1107 19.4492 98.9023 20.0547C98.7005 20.6602 98.5996 21.3079 98.5996 21.998C98.5996 22.6882 98.7005 23.3392 98.9023 23.9512C99.1107 24.5566 99.4036 25.0872 99.7812 25.543C100.165 25.9922 100.631 26.347 101.178 26.6074C101.731 26.8678 102.353 26.998 103.043 26.998H107.701C108.391 26.998 109.007 26.8678 109.547 26.6074C110.094 26.347 110.556 25.9922 110.934 25.543C111.318 25.0872 111.611 24.5566 111.812 23.9512C112.014 23.3392 112.115 22.6882 112.115 21.998ZM118.678 29H116.676V14.9961H117.672C118.323 14.9961 119.013 15.0807 119.742 15.25C120.478 15.4193 121.227 15.6634 121.988 15.9824C122.75 16.3014 123.508 16.6888 124.264 17.1445C125.025 17.5938 125.761 18.1048 126.471 18.6777C127.18 19.2507 127.848 19.8757 128.473 20.5527C129.098 21.2233 129.658 21.9395 130.152 22.7012V14.9961H132.154V29H130.152C130.152 27.9714 129.973 26.9818 129.615 26.0312C129.257 25.0742 128.779 24.1725 128.18 23.3262C127.581 22.4798 126.891 21.7018 126.109 20.9922C125.328 20.276 124.511 19.6478 123.658 19.1074C122.812 18.5671 121.959 18.1243 121.1 17.7793C120.24 17.4277 119.433 17.1934 118.678 17.0762V29ZM150.182 29H141.168C140.198 29 139.316 28.8177 138.521 28.4531C137.727 28.0885 137.047 27.5905 136.48 26.959C135.921 26.3275 135.488 25.5853 135.182 24.7324C134.876 23.8796 134.723 22.9681 134.723 21.998C134.723 21.0345 134.876 20.1296 135.182 19.2832C135.488 18.4303 135.921 17.6882 136.48 17.0566C137.047 16.4186 137.727 15.9173 138.521 15.5527C139.316 15.1816 140.198 14.9961 141.168 14.9961H150.182V16.998H141.168C140.478 16.998 139.856 17.1315 139.303 17.3984C138.756 17.6589 138.29 18.0169 137.906 18.4727C137.529 18.9219 137.236 19.4492 137.027 20.0547C136.826 20.6602 136.725 21.3079 136.725 21.998C136.725 22.6882 136.826 23.3392 137.027 23.9512C137.236 24.5566 137.529 25.0872 137.906 25.543C138.29 25.9922 138.756 26.347 139.303 26.6074C139.856 26.8678 140.478 26.998 141.168 26.998H148.18V23.0039H139.703V21.002H150.182V29Z" fill="#292A2E"/>
</g>
<g clip-path="url(#clip2_35_14)">
<path d="M78.2422 60.5977C78.2422 61.3789 78.1406 62.1289 77.9375 62.8477C77.7422 63.5586 77.4609 64.2266 77.0938 64.8516C76.7344 65.4688 76.3008 66.0352 75.793 66.5508C75.2852 67.0586 74.7188 67.4961 74.0938 67.8633C73.4766 68.2227 72.8086 68.5039 72.0898 68.707C71.3711 68.9023 70.625 69 69.8516 69H59.8906V66.5977H69.8516C70.6797 66.5977 71.457 66.4414 72.1836 66.1289C72.9102 65.8164 73.543 65.3906 74.082 64.8516C74.6289 64.3047 75.0586 63.668 75.3711 62.9414C75.6914 62.207 75.8516 61.4258 75.8516 60.5977V54.5977H59.8906V52.1953H78.2422V60.5977ZM102.055 60.5977C102.055 61.7617 101.871 62.8555 101.504 63.8789C101.137 64.9023 100.613 65.793 99.9336 66.5508C99.2617 67.3086 98.4531 67.9062 97.5078 68.3438C96.5625 68.7812 95.5117 69 94.3555 69H88.7656C87.6016 69 86.543 68.7812 85.5898 68.3438C84.6367 67.9062 83.8203 67.3086 83.1406 66.5508C82.4688 65.793 81.9492 64.9023 81.582 63.8789C81.2148 62.8555 81.0312 61.7617 81.0312 60.5977C81.0312 59.4414 81.2148 58.3555 81.582 57.3398C81.9492 56.3164 82.4688 55.4258 83.1406 54.668C83.8203 53.9023 84.6367 53.3008 85.5898 52.8633C86.543 52.418 87.6016 52.1953 88.7656 52.1953H94.3555C95.5117 52.1953 96.5625 52.418 97.5078 52.8633C98.4531 53.3008 99.2617 53.9023 99.9336 54.668C100.613 55.4258 101.137 56.3164 101.504 57.3398C101.871 58.3555 102.055 59.4414 102.055 60.5977ZM99.6523 60.5977C99.6523 59.7695 99.5312 58.9922 99.2891 58.2656C99.0469 57.5391 98.6953 56.9062 98.2344 56.3672C97.7812 55.8203 97.2266 55.3906 96.5703 55.0781C95.9219 54.7578 95.1836 54.5977 94.3555 54.5977H88.7656C87.9375 54.5977 87.1914 54.7578 86.5273 55.0781C85.8711 55.3906 85.3125 55.8203 84.8516 56.3672C84.3984 56.9062 84.0469 57.5391 83.7969 58.2656C83.5547 58.9922 83.4336 59.7695 83.4336 60.5977C83.4336 61.4258 83.5547 62.207 83.7969 62.9414C84.0469 63.668 84.3984 64.3047 84.8516 64.8516C85.3125 65.3906 85.8711 65.8164 86.5273 66.1289C87.1914 66.4414 87.9375 66.5977 88.7656 66.5977H94.3555C95.1836 66.5977 95.9219 66.4414 96.5703 66.1289C97.2266 65.8164 97.7812 65.3906 98.2344 64.8516C98.6953 64.3047 99.0469 63.668 99.2891 62.9414C99.5312 62.207 99.6523 61.4258 99.6523 60.5977ZM123.676 64.1953C123.676 64.8672 123.551 65.4961 123.301 66.082C123.051 66.6602 122.707 67.168 122.27 67.6055C121.84 68.0352 121.332 68.375 120.746 68.625C120.168 68.875 119.547 69 118.883 69H104.281V66.5977H118.883C119.219 66.5977 119.531 66.5352 119.82 66.4102C120.109 66.2852 120.359 66.1133 120.57 65.8945C120.789 65.6758 120.961 65.4219 121.086 65.1328C121.211 64.8359 121.273 64.5234 121.273 64.1953C121.273 63.8672 121.211 63.5586 121.086 63.2695C120.961 62.9805 120.789 62.7266 120.57 62.5078C120.359 62.2891 120.109 62.1172 119.82 61.9922C119.531 61.8672 119.219 61.8047 118.883 61.8047H109.086C108.43 61.8047 107.809 61.6797 107.223 61.4297C106.637 61.1797 106.125 60.8398 105.688 60.4102C105.258 59.9727 104.914 59.4609 104.656 58.875C104.406 58.2891 104.281 57.6641 104.281 57C104.281 56.3438 104.406 55.7227 104.656 55.1367C104.914 54.5508 105.258 54.043 105.688 53.6133C106.125 53.1758 106.637 52.832 107.223 52.582C107.809 52.3242 108.43 52.1953 109.086 52.1953H122.48V54.5977H109.086C108.758 54.5977 108.445 54.6602 108.148 54.7852C107.859 54.9102 107.605 55.082 107.387 55.3008C107.168 55.5195 106.996 55.7773 106.871 56.0742C106.746 56.3633 106.684 56.6719 106.684 57C106.684 57.3281 106.746 57.6406 106.871 57.9375C106.996 58.2266 107.168 58.4805 107.387 58.6992C107.605 58.918 107.859 59.0898 108.148 59.2148C108.445 59.3398 108.758 59.4023 109.086 59.4023H118.883C119.547 59.4023 120.168 59.5312 120.746 59.7891C121.332 60.0391 121.84 60.3828 122.27 60.8203C122.707 61.25 123.051 61.7578 123.301 62.3438C123.551 62.9219 123.676 63.5391 123.676 64.1953ZM143.879 69H126.5V52.1953H143.879V54.5977H128.902V66.5977H143.879V69ZM141.84 61.8047H130.098V59.4023H141.84V61.8047ZM166.262 58.1953C166.262 59.0234 166.102 59.8047 165.781 60.5391C165.469 61.2656 165.039 61.9023 164.492 62.4492C163.953 62.9883 163.32 63.4141 162.594 63.7266C161.867 64.0391 161.09 64.1953 160.262 64.1953H150.617V61.8281H160.262C160.762 61.8281 161.23 61.7344 161.668 61.5469C162.105 61.3516 162.484 61.0898 162.805 60.7617C163.133 60.4336 163.391 60.0508 163.578 59.6133C163.766 59.168 163.859 58.6953 163.859 58.1953C163.859 57.6953 163.766 57.2266 163.578 56.7891C163.391 56.3516 163.133 55.9727 162.805 55.6523C162.484 55.3242 162.105 55.0664 161.668 54.8789C161.23 54.6914 160.762 54.5977 160.262 54.5977H149.27V69H146.867V52.1953H160.262C161.09 52.1953 161.867 52.3555 162.594 52.6758C163.32 52.9883 163.953 53.418 164.492 53.9648C165.039 54.5039 165.469 55.1367 165.781 55.8633C166.102 56.5898 166.262 57.3672 166.262 58.1953ZM186.617 69H184.215V61.8047H172.473V59.4023H184.215V52.1953H186.617V69ZM171.277 69H168.875V52.1953H171.277V69Z" fill="#292A2E"/>
</g>
</g>
<defs>
<clipPath id="clip0_35_14">
<rect width="130" height="65" fill="white" transform="translate(59 10)"/>
</clipPath>
<clipPath id="clip1_35_14">
<rect width="128" height="24" fill="white" transform="translate(59 10)"/>
</clipPath>
<clipPath id="clip2_35_14">
<rect width="130" height="29" fill="white" transform="translate(59 46)"/>
</clipPath>
</defs>
</svg>
